<svg version="1.1" xmlns="http://www.w3.org/2000/svg" xmlns:xlink="http://www.w3.org/1999/xlink" width="179" height="404"><defs></defs><g><g transform="translate(-494,-70) scale(1,1)"><rect fill="#ffebd8" stroke="none" x="520" y="80" width="120" height="45"></rect></g><g transform="translate(-494,-70) scale(1,1)"><path fill="none" stroke="#000000" d="M 520 80 L 640 80 L 640 125 L 520 125 L 520 80 Z Z" stroke-miterlimit="10"></path></g><g transform="translate(-494,-70) scale(1,1)"><g><path fill="none" stroke="none"></path><text fill="#000000" stroke="none" font-family="Arial" font-size="13px" font-style="normal" font-weight="normal" text-decoration="none" x="536" y="102.5">Write Message</text></g></g><g transform="translate(-494,-70) scale(1,1)"><rect fill="#d8ffd8" stroke="none" x="536" y="152" width="89" height="32"></rect></g><g transform="translate(-494,-70) scale(1,1)"><path fill="none" stroke="#000000" d="M 536 152 L 625 152 L 625 184 L 536 184 L 536 152 Z Z" stroke-miterlimit="10"></path></g><g transform="translate(-494,-70) scale(1,1)"><g><path fill="none" stroke="none"></path><text fill="#000000" stroke="none" font-family="Arial" font-size="13px" font-style="normal" font-weight="normal" text-decoration="none" x="545.5" y="174.5">lockQueue()</text></g></g><g transform="translate(-494,-70) scale(1,1)"><rect fill="#d8ffd8" stroke="none" x="520" y="216" width="129" height="32"></rect></g><g transform="translate(-494,-70) scale(1,1)"><path fill="none" stroke="#000000" d="M 520 216 L 649 216 L 649 248 L 520 248 L 520 216 Z Z" stroke-miterlimit="10"></path></g><g transform="translate(-494,-70) scale(1,1)"><g><path fill="none" stroke="none"></path><text fill="#000000" stroke="none" font-family="Arial" font-size="13px" font-style="normal" font-weight="normal" text-decoration="none" x="529.5" y="238.5">enqueueMessage()</text></g></g><g transform="translate(-494,-70) scale(1,1)"><rect fill="#d8ffd8" stroke="none" x="528" y="352" width="103" height="32"></rect></g><g transform="translate(-494,-70) scale(1,1)"><path fill="none" stroke="#000000" d="M 528 352 L 631 352 L 631 384 L 528 384 L 528 352 Z Z" stroke-miterlimit="10"></path></g><g transform="translate(-494,-70) scale(1,1)"><g><path fill="none" stroke="none"></path><text fill="#000000" stroke="none" font-family="Arial" font-size="13px" font-style="normal" font-weight="normal" text-decoration="none" x="537.5" y="374.5">unlockQueue()</text></g></g><g transform="translate(-494,-70) scale(1,1)"><rect fill="#d8ffd8" stroke="none" x="504" y="280" width="159" height="32"></rect></g><g transform="translate(-494,-70) scale(1,1)"><path fill="none" stroke="#000000" d="M 504 280 L 663 280 L 663 312 L 504 312 L 504 280 Z Z" stroke-miterlimit="10"></path></g><g transform="translate(-494,-70) scale(1,1)"><g><path fill="none" stroke="none"></path><text fill="#000000" stroke="none" font-family="Arial" font-size="13px" font-style="normal" font-weight="normal" text-decoration="none" x="517" y="302.5">awakeGarbageThread()</text></g></g><g transform="translate(-494,-70) scale(1,1)"><path fill="none" stroke="#000000" d="M 579 125 L 579 152" stroke-miterlimit="10"></path></g><g transform="translate(-494,-70) scale(1,1)"><path fill="#000000" stroke="none" d="M 574.790482243984 141.83732514237585 L 579 152 L 583.209517756016 141.83732514237585"></path></g><g transform="translate(-494,-70) scale(1,1)"><path fill="none" stroke="#000000" d="M 574.790482243984 141.83732514237585 L 579 152 L 583.209517756016 141.83732514237585 L 574.790482243984 141.83732514237585" stroke-miterlimit="10"></path></g><g transform="translate(-494,-70) scale(1,1)"><path fill="none" stroke="#000000" d="M 576 184 L 576 216" stroke-miterlimit="10"></path></g><g transform="translate(-494,-70) scale(1,1)"><path fill="#000000" stroke="none" d="M 571.790482243984 205.83732514237585 L 576 216 L 580.209517756016 205.83732514237585"></path></g><g transform="translate(-494,-70) scale(1,1)"><path fill="none" stroke="#000000" d="M 571.790482243984 205.83732514237585 L 576 216 L 580.209517756016 205.83732514237585 L 571.790482243984 205.83732514237585" stroke-miterlimit="10"></path></g><g transform="translate(-494,-70) scale(1,1)"><path fill="none" stroke="#000000" d="M 576 248 L 576 280" stroke-miterlimit="10"></path></g><g transform="translate(-494,-70) scale(1,1)"><path fill="#000000" stroke="none" d="M 571.790482243984 269.83732514237585 L 576 280 L 580.209517756016 269.83732514237585"></path></g><g transform="translate(-494,-70) scale(1,1)"><path fill="none" stroke="#000000" d="M 571.790482243984 269.83732514237585 L 576 280 L 580.209517756016 269.83732514237585 L 571.790482243984 269.83732514237585" stroke-miterlimit="10"></path></g><g transform="translate(-494,-70) scale(1,1)"><path fill="none" stroke="#000000" d="M 577 312 L 577 352" stroke-miterlimit="10"></path></g><g transform="translate(-494,-70) scale(1,1)"><path fill="#000000" stroke="none" d="M 572.790482243984 341.83732514237585 L 577 352 L 581.209517756016 341.83732514237585"></path></g><g transform="translate(-494,-70) scale(1,1)"><path fill="none" stroke="#000000" d="M 572.790482243984 341.83732514237585 L 577 352 L 581.209517756016 341.83732514237585 L 572.790482243984 341.83732514237585" stroke-miterlimit="10"></path></g><g transform="translate(-494,-70) scale(1,1)"><rect fill="#ffebd8" stroke="none" x="536" y="432" width="88" height="32"></rect></g><g transform="translate(-494,-70) scale(1,1)"><path fill="none" stroke="#000000" d="M 536 432 L 624 432 L 624 464 L 536 464 L 536 432 Z Z" stroke-miterlimit="10"></path></g><g transform="translate(-494,-70) scale(1,1)"><g><path fill="none" stroke="none"></path><text fill="#000000" stroke="none" font-family="Arial" font-size="13px" font-style="normal" font-weight="normal" text-decoration="none" x="561" y="454.5">Return</text></g></g><g transform="translate(-494,-70) scale(1,1)"><path fill="none" stroke="#000000" d="M 576 384 L 576 432" stroke-miterlimit="10"></path></g><g transform="translate(-494,-70) scale(1,1)"><path fill="#000000" stroke="none" d="M 571.790482243984 421.83732514237585 L 576 432 L 580.209517756016 421.83732514237585"></path></g><g transform="translate(-494,-70) scale(1,1)"><path fill="none" stroke="#000000" d="M 571.790482243984 421.83732514237585 L 576 432 L 580.209517756016 421.83732514237585 L 571.790482243984 421.83732514237585" stroke-miterlimit="10"></path></g></g></svg>