<?xml version="1.0" encoding="UTF-8" standalone="no"?>
<svg
   xmlns:dc="http://purl.org/dc/elements/1.1/"
   xmlns:cc="http://creativecommons.org/ns#"
   xmlns:rdf="http://www.w3.org/1999/02/22-rdf-syntax-ns#"
   xmlns:svg="http://www.w3.org/2000/svg"
   xmlns="http://www.w3.org/2000/svg"
   xmlns:sodipodi="http://sodipodi.sourceforge.net/DTD/sodipodi-0.dtd"
   xmlns:inkscape="http://www.inkscape.org/namespaces/inkscape"
   version="1.1"
   width="685"
   height="445"
   id="svg2"
   inkscape:version="0.91 r13725"
   sodipodi:docname="logger2.svg"
   inkscape:export-filename="/home/tucs/hideo/Relazione/logger2.png"
   inkscape:export-xdpi="600"
   inkscape:export-ydpi="600">
  <metadata
     id="metadata244">
    <rdf:RDF>
      <cc:Work
         rdf:about="">
        <dc:format>image/svg+xml</dc:format>
        <dc:type
           rdf:resource="http://purl.org/dc/dcmitype/StillImage" />
      </cc:Work>
    </rdf:RDF>
  </metadata>
  <sodipodi:namedview
     pagecolor="#ffffff"
     bordercolor="#666666"
     borderopacity="1"
     objecttolerance="10"
     gridtolerance="10"
     guidetolerance="10"
     inkscape:pageopacity="0"
     inkscape:pageshadow="2"
     inkscape:window-width="1280"
     inkscape:window-height="975"
     id="namedview242"
     showgrid="false"
     inkscape:zoom="0.75000989"
     inkscape:cx="189.11172"
     inkscape:cy="342.98741"
     inkscape:window-x="0"
     inkscape:window-y="25"
     inkscape:window-maximized="1"
     inkscape:current-layer="g6" />
  <defs
     id="defs4" />
  <g
     id="g6">
    <g
       transform="translate(-326,-94) scale(1,1)"
       id="g8">
      <rect
         fill="#ffebd8"
         stroke="none"
         x="536"
         y="104"
         width="93"
         height="45"
         id="rect10" />
    </g>
    <g
       transform="translate(-326,-94) scale(1,1)"
       id="g12">
      <path
         fill="none"
         stroke="#000000"
         d="M 536 104 L 629 104 L 629 149 L 536 149 L 536 104 Z Z"
         stroke-miterlimit="10"
         id="path14" />
    </g>
    <g
       transform="translate(-326,-94) scale(1,1)"
       id="g16">
      <g
         id="g18">
        <path
           fill="none"
           stroke="none"
           id="path20" />
        <text
           fill="#000000"
           stroke="none"
           font-family="Arial"
           font-size="13px"
           font-style="normal"
           font-weight="normal"
           text-decoration="none"
           x="558"
           y="126.5"
           id="text22">Garbage</text>
        <text
           fill="#000000"
           stroke="none"
           font-family="Arial"
           font-size="13px"
           font-style="normal"
           font-weight="normal"
           text-decoration="none"
           x="570"
           y="139.5"
           id="text24">JOB</text>
      </g>
    </g>
    <g
       transform="translate(-326,-94) scale(1,1)"
       id="g26">
      <path
         fill="#d8d8ff"
         stroke="none"
         d="M 488 240 L 584 208 L 680 240 L 584 272 L 488 240"
         id="path28" />
    </g>
    <g
       transform="translate(-326,-94) scale(1,1)"
       id="g30">
      <path
         fill="none"
         stroke="#000000"
         d="M 488 240 L 584 208 L 680 240 L 584 272 L 488 240 L 488 240"
         stroke-miterlimit="10"
         id="path32" />
    </g>
    <g
       transform="translate(-325.66667,-97.333289)"
       id="g34">
      <g
         id="g36">
        <path
           id="path38"
           d=""
           inkscape:connector-curvature="0"
           style="fill:none;stroke:none" />
        <text
           font-size="13px"
           font-style="normal"
           font-weight="normal"
           text-decoration="none"
           x="537"
           y="246.5"
           id="text40"
           style="font-style:normal;font-weight:normal;font-size:13px;font-family:Arial;text-decoration:none;text-decoration-line:none;fill:#000000;stroke:none">isQueueEmpty()</text>
      </g>
    </g>
    <g
       transform="matrix(1,0,0,0.83920524,-324.64473,-70.041581)"
       id="g42">
      <path
         d="m 583,149 0,59"
         stroke-miterlimit="10"
         id="path44"
         inkscape:connector-curvature="0"
         style="fill:none;stroke:#000000;stroke-miterlimit:10" />
    </g>
    <g
       transform="translate(-324.8215,-95.237421)"
       id="g46">
      <path
         d="M 578.79048,197.83733 583,208 l 4.20952,-10.16267"
         id="path48"
         inkscape:connector-curvature="0"
         style="fill:#000000;stroke:none" />
    </g>
    <g
       transform="translate(-330.9166,-94.083332)"
       id="g54">
      <rect
         x="424"
         y="360"
         width="74"
         height="32"
         id="rect56"
         style="fill:#d8ffd8;stroke:none" />
    </g>
    <g
       transform="translate(-331.06753,-94.11785)"
       id="g58">
      <path
         d="m 424,360 74,0 0,32 -74,0 0,-32 z"
         stroke-miterlimit="10"
         id="path60"
         inkscape:connector-curvature="0"
         style="fill:none;stroke:#000000;stroke-miterlimit:10" />
    </g>
    <g
       transform="translate(-326,-94) scale(1,1)"
       id="g62">
      <g
         id="g64">
        <path
           id="path66"
           stroke="none"
           fill="none" />
        <text
           font-size="13px"
           font-style="normal"
           font-weight="normal"
           text-decoration="none"
           x="441.5"
           y="382.5"
           id="text68"
           font-family="Arial"
           stroke="none"
           fill="#000000">sleep()</text>
      </g>
    </g>
    <g
       transform="matrix(1.0352354,0,0,0.97913861,-343.18788,-88.996784)"
       id="g70">
      <path
         d="m 488,240 -22,0 m 0,0 a 8,8 0 0 0 -8,8 l 0,112"
         stroke-miterlimit="10"
         id="path72"
         inkscape:connector-curvature="0"
         style="fill:none;stroke:#000000;stroke-miterlimit:10" />
    </g>
    <g
       transform="translate(-326.99161,-95.103539)"
       id="g74">
      <path
         d="M 453.79048,349.83733 458,360 l 4.20952,-10.16267"
         id="path76"
         inkscape:connector-curvature="0"
         style="fill:#000000;stroke:none" />
    </g>
    <g
       transform="translate(-326,-94) scale(1,1)"
       id="g82">
      <g
         id="g84">
        <path
           fill="none"
           stroke="none"
           id="path86" />
        <text
           fill="#000000"
           stroke="none"
           font-family="Arial"
           font-size="13px"
           font-style="normal"
           font-weight="normal"
           text-decoration="none"
           x="431.5"
           y="235.5"
           id="text88">YES</text>
      </g>
    </g>
    <g
       transform="translate(-315.5,-94)"
       id="g90">
      <rect
         x="776"
         y="224"
         width="89"
         height="32"
         id="rect92"
         style="fill:#d8ffd8;stroke:none" />
    </g>
    <g
       transform="translate(-315.5,-94)"
       id="g94">
      <path
         d="m 776,224 89,0 0,32 -89,0 0,-32 z"
         stroke-miterlimit="10"
         id="path96"
         inkscape:connector-curvature="0"
         style="fill:none;stroke:#000000;stroke-miterlimit:10" />
    </g>
    <g
       transform="translate(-315.94052,-97.333289)"
       id="g98">
      <g
         id="g100">
        <path
           id="path102"
           d=""
           inkscape:connector-curvature="0"
           style="fill:none;stroke:none" />
        <text
           font-size="13px"
           font-style="normal"
           font-weight="normal"
           text-decoration="none"
           x="785.5"
           y="246.5"
           id="text104"
           style="font-style:normal;font-weight:normal;font-size:13px;font-family:Arial;text-decoration:none;text-decoration-line:none;fill:#000000;stroke:none">lockQueue()</text>
      </g>
    </g>
    <g
       transform="translate(-324.5,-94)"
       id="g106">
      <rect
         x="752"
         y="296"
         width="155"
         height="40"
         id="rect108"
         style="fill:#d8ffd8;stroke:none" />
    </g>
    <g
       transform="translate(-324.5,-94)"
       id="g110">
      <path
         d="m 752,296 155,0 0,40 -155,0 0,-40 z"
         stroke-miterlimit="10"
         id="path112"
         inkscape:connector-curvature="0"
         style="fill:none;stroke:#000000;stroke-miterlimit:10" />
    </g>
    <g
       transform="translate(-325.18799,-93.057203)"
       id="g114">
      <g
         id="g116"
         transform="translate(0,0.66665788)">
        <path
           id="path118"
           d=""
           inkscape:connector-curvature="0"
           style="fill:none;stroke:none" />
        <text
           font-size="13px"
           font-style="normal"
           font-weight="normal"
           text-decoration="none"
           x="761.5"
           y="318.5"
           id="text120"
           style="font-style:normal;font-weight:normal;font-size:13px;font-family:Arial;text-decoration:none;text-decoration-line:none;fill:#000000;stroke:none">dequeueFirstMessage()</text>
      </g>
    </g>
    <g
       transform="translate(-322.5,-94)"
       id="g122">
      <rect
         x="776"
         y="376"
         width="103"
         height="32"
         id="rect124"
         style="fill:#d8ffd8;stroke:none" />
    </g>
    <g
       transform="translate(-322.5,-94)"
       id="g126">
      <path
         d="m 776,376 103,0 0,32 -103,0 0,-32 z"
         stroke-miterlimit="10"
         id="path128"
         inkscape:connector-curvature="0"
         style="fill:none;stroke:#000000;stroke-miterlimit:10" />
    </g>
    <g
       transform="translate(-323.34351,-94)"
       id="g130">
      <g
         id="g132"
         transform="translate(0,-1.8855932)">
        <path
           id="path134"
           d=""
           inkscape:connector-curvature="0"
           style="fill:none;stroke:none" />
        <text
           font-size="13px"
           font-style="normal"
           font-weight="normal"
           text-decoration="none"
           x="785.5"
           y="398.5"
           id="text136"
           style="font-style:normal;font-weight:normal;font-size:13px;font-family:Arial;text-decoration:none;text-decoration-line:none;fill:#000000;stroke:none">unlockQueue()</text>
      </g>
    </g>
    <g
       transform="translate(-330,-94)"
       id="g138">
      <path
         d="m 760,454 c 0,-3.31371 33.57864,-6 75,-6 41.42136,0 75,2.68629 75,6 l 0,36 c 0,3.31371 -33.57864,6 -75,6 -41.42136,0 -75,-2.68629 -75,-6 l 0,-36 z"
         stroke-miterlimit="10"
         id="path140"
         inkscape:connector-curvature="0"
         style="fill:#d8ffd8;stroke:#000000;stroke-miterlimit:10" />
    </g>
    <g
       transform="translate(-330,-94)"
       id="g142">
      <path
         d="m 760,454 c 0,3.31371 33.57864,6 75,6 41.42136,0 75,-2.68629 75,-6"
         stroke-miterlimit="10"
         id="path144"
         inkscape:connector-curvature="0"
         style="fill:none;stroke:#000000;stroke-miterlimit:10" />
    </g>
    <g
       transform="translate(-330.06494,-94)"
       id="g146">
      <g
         id="g148">
        <path
           id="path150"
           d=""
           inkscape:connector-curvature="0"
           style="fill:none;stroke:none" />
        <text
           font-size="13px"
           font-style="normal"
           font-weight="normal"
           text-decoration="none"
           x="769.5"
           y="481.5"
           id="text152"
           style="font-style:normal;font-weight:normal;font-size:13px;font-family:Arial;text-decoration:none;text-decoration-line:none;fill:#000000;stroke:none">writeMessageOnDisk()</text>
      </g>
    </g>
    <g
       transform="translate(-326,-94) scale(1,1)"
       id="g154">
      <path
         fill="none"
         stroke="#000000"
         d="M 680 240 L 776 240"
         stroke-miterlimit="10"
         id="path156" />
    </g>
    <g
       transform="translate(-316.35828,-94.054737)"
       id="g158">
      <path
         d="M 765.83733,244.20952 776,240 765.83733,235.79048"
         id="path160"
         inkscape:connector-curvature="0"
         style="fill:#000000;stroke:none" />
    </g>
    <g
       transform="translate(-326,-94) scale(1,1)"
       id="g166">
      <g
         id="g168">
        <path
           fill="none"
           stroke="none"
           id="path170" />
        <text
           fill="#000000"
           stroke="none"
           font-family="Arial"
           font-size="13px"
           font-style="normal"
           font-weight="normal"
           text-decoration="none"
           x="718.5"
           y="231.5"
           id="text172">NO</text>
      </g>
    </g>
    <g
       transform="matrix(1,0,0,0.86250181,-319,-58.800464)"
       id="g174">
      <path
         d="m 824,256 0,40"
         stroke-miterlimit="10"
         id="path176"
         inkscape:connector-curvature="0"
         style="fill:none;stroke:#000000;stroke-miterlimit:10" />
    </g>
    <g
       transform="translate(-319.16666,-94.999987)"
       id="g178">
      <path
         d="M 819.79048,285.83733 824,296 l 4.20952,-10.16267"
         id="path180"
         inkscape:connector-curvature="0"
         style="fill:#000000;stroke:none" />
    </g>
    <g
       transform="matrix(1,0,0,0.82911811,-322,-36.583686)"
       id="g186">
      <path
         d="m 827,336 0,40"
         stroke-miterlimit="10"
         id="path188"
         inkscape:connector-curvature="0"
         style="fill:none;stroke:#000000;stroke-miterlimit:10" />
    </g>
    <g
       transform="translate(-322.05892,-94.985689)"
       id="g190">
      <path
         d="M 822.79048,365.83733 827,376 l 4.20952,-10.16267"
         id="path192"
         inkscape:connector-curvature="0"
         style="fill:#000000;stroke:none" />
    </g>
    <g
       transform="matrix(1,0,0,0.83333553,-327,-26.000896)"
       id="g198">
      <path
         d="m 832,408 0,40"
         stroke-miterlimit="10"
         id="path200"
         inkscape:connector-curvature="0"
         style="fill:none;stroke:#000000;stroke-miterlimit:10" />
    </g>
    <g
       transform="translate(-327.08333,-94.833322)"
       id="g202">
      <path
         d="M 827.79048,437.83733 832,448 l 4.20952,-10.16267"
         id="path204"
         inkscape:connector-curvature="0"
         style="fill:#000000;stroke:none" />
    </g>
    <g
       transform="matrix(0.98528352,0,0,0.99982372,-320.35367,-93.921179)"
       id="g210">
      <path
         d="m 456,392 0,32 m 0,0 a 8,8 0 0 1 -8,8 l -56,0 m 0,0 a 8,8 0 0 1 -8,-8 l 0,-288 m 0,0 a 8,8 0 0 1 8,-8 l 144,0"
         stroke-miterlimit="10"
         id="path212"
         inkscape:connector-curvature="0"
         style="fill:none;stroke:#000000;stroke-miterlimit:10" />
    </g>
    <g
       transform="translate(-326,-94) scale(1,1)"
       id="g214">
      <path
         fill="#000000"
         stroke="none"
         d="M 525.8373251423759 132.209517756016 L 536 128 L 525.8373251423758 123.79048224398402"
         id="path216" />
    </g>
    <g
       transform="translate(-326,-94) scale(1,1)"
       id="g222">
      <g
         id="g224">
        <path
           fill="none"
           stroke="none"
           id="path226" />
        <text
           fill="#000000"
           stroke="none"
           font-family="Arial"
           font-size="13px"
           font-style="normal"
           font-weight="normal"
           text-decoration="none"
           x="335.5"
           y="299.5"
           id="text228">awake</text>
      </g>
    </g>
    <g
       transform="matrix(0.99045744,0,0,1.0002164,-316.45439,-94.112657)"
       id="g230">
      <path
         d="m 832,496 0,24 m 0,0 a 8,8 0 0 0 8,8 l 152,0 m 0,0 a 8,8 0 0 0 8,-8 l 0,-384 m 0,0 a 8,8 0 0 0 -8,-8 l -363,0"
         stroke-miterlimit="10"
         id="path232"
         inkscape:connector-curvature="0"
         style="fill:none;stroke:#000000;stroke-miterlimit:10" />
    </g>
    <g
       transform="translate(-324.58335,-94)"
       id="g234">
      <path
         d="M 639.16267,123.79048 629,128 l 10.16267,4.20952"
         id="path236"
         inkscape:connector-curvature="0"
         style="fill:#000000;stroke:none" />
    </g>
  </g>
</svg>
